<!DOCTYPE svg PUBLIC "-//W3C//DTD SVG 1.1//EN" "http://www.w3.org/Graphics/SVG/1.1/DTD/svg11.dtd">
<!-- Uploaded to: SVG Repo, www.svgrepo.com, Transformed by: SVG Repo Mixer Tools -->
<svg fill="#bda6cc" width="800px" height="800px" viewBox="0 0 32 32" version="1.1" xmlns="http://www.w3.org/2000/svg" stroke="#bda6cc" stroke-width="0.00032">
<g id="SVGRepo_bgCarrier" stroke-width="0"/>
<g id="SVGRepo_tracerCarrier" stroke-linecap="round" stroke-linejoin="round"/>
<g id="SVGRepo_iconCarrier"> <title>hourglass</title> <path d="M18.404 16.53v-1.057c3.511-1.669 6.086-7.082 6.086-13.52h-16.727c0 6.4 2.534 11.817 6.013 13.52v1.057c-3.479 1.703-6.013 7.12-6.013 13.52h16.727c0-6.437-2.575-11.851-6.086-13.52zM10.614 8.165c3.309 1.482 7.484 1.48 11.078-0.255-0.894 3.323-2.769 5.706-4.979 6.073 0.094 0.127 0.15 0.283 0.15 0.453 0 0.422-0.342 0.764-0.764 0.764s-0.764-0.342-0.764-0.764c0-0.172 0.058-0.331 0.154-0.458-2.141-0.374-3.96-2.636-4.874-5.812zM16.099 20.117c-0.422 0-0.764-0.342-0.764-0.764s0.342-0.764 0.764-0.764 0.764 0.342 0.764 0.764-0.342 0.764-0.764 0.764zM16.863 21.819c0 0.422-0.342 0.764-0.764 0.764s-0.764-0.342-0.764-0.764 0.342-0.764 0.764-0.764c0.422 0 0.764 0.342 0.764 0.764zM16.099 17.666c-0.422 0-0.764-0.342-0.764-0.764s0.342-0.764 0.764-0.764 0.764 0.342 0.764 0.764c0 0.422-0.342 0.764-0.764 0.764zM11.377 28.266c3.697-6.226 5.737-6.365 9.546 0h-9.546z"/> </g>
</svg>